<svg id="Capa_1" enable-background="new 0 0 512 512" height="512" viewBox="0 0 512 512" width="512" xmlns="http://www.w3.org/2000/svg"><g><path d="m398.364 108.009c5.856 5.857 15.354 5.859 21.213 0 15.24-15.241 15.243-39.912 0-55.154-5.858-5.859-15.356-5.857-21.213 0-5.858 5.858-5.857 15.355 0 21.213 3.516 3.517 3.518 9.21 0 12.729-5.858 5.857-5.858 15.354 0 21.212z"/><path d="m437.962 126.394c-5.858 5.857-5.858 15.355 0 21.213 5.858 5.859 15.355 5.858 21.213 0 37.125-37.125 37.132-97.219 0-134.35-5.858-5.859-15.355-5.857-21.213 0-5.857 5.858-5.857 15.355 0 21.213 25.402 25.4 25.405 66.517 0 91.924z"/><path d="m103.029 112.402c13.243 0 20.083-16.13 10.607-25.606-3.517-3.517-3.518-9.21 0-12.729 5.858-5.857 5.858-15.354 0-21.213s-15.355-5.858-21.213 0c-15.241 15.239-15.243 39.911 0 55.154 2.929 2.93 6.767 4.394 10.606 4.394z"/><path d="m63.432 152c13.243 0 20.084-16.13 10.606-25.606-25.401-25.402-25.406-66.519 0-91.924 5.858-5.857 5.858-15.354 0-21.213-5.857-5.859-15.355-5.857-21.213 0-37.126 37.124-37.131 97.218 0 134.35 2.929 2.928 6.768 4.393 10.607 4.393z"/><path d="m145 456c0 3.914 1.53 7.673 4.263 10.475l40 41c2.823 2.893 6.695 4.525 10.737 4.525h112c4.042 0 7.914-1.632 10.737-4.525l40-41c2.733-2.802 4.263-6.561 4.263-10.475v-17h-222z"/><path d="m0 245v134c0 16.569 13.431 30 30 30h452c16.569 0 30-13.431 30-30v-134c0-16.569-13.431-30-30-30h-452c-16.569 0-30 13.431-30 30zm128 138h-48c-8.28 0-15-6.72-15-15v-112c0-8.28 6.72-15 15-15s15 6.72 15 15v97h33c8.28 0 15 6.72 15 15s-6.72 15-15 15zm71-15c0 8.28-6.72 15-15 15s-15-6.72-15-15v-112c0-8.28 6.72-15 15-15s15 6.72 15 15zm135.21-107.2-37.17 110.01c-2.39 7.09-9.19 12.19-17.04 12.19-7.84 0-14.64-5.1-17.04-12.19l-37.17-110.01c-2.65-7.85 1.56-16.359 9.41-19.01 7.85-2.65 16.36 1.56 19.01 9.41l25.79 76.31 25.79-76.31c2.65-7.851 11.16-12.061 19.01-9.41 7.85 2.65 12.06 11.16 9.41 19.01zm89.79 36.2c8.28 0 15 6.72 15 15s-6.72 15-15 15h-33v26h33c8.28 0 15 6.72 15 15s-6.72 15-15 15h-48c-8.28 0-15-6.72-15-15v-112c0-8.28 6.72-15 15-15h48c8.28 0 15 6.72 15 15s-6.72 15-15 15h-33v26z"/><path d="m224 65c8.284 0 15 6.716 15 15s-6.716 15-15 15h-79v26h79c8.284 0 15 6.716 15 15s-6.716 15-15 15h-79v34h222c0-3.618 0-16.931 0-34h-78.998c-8.284 0-15-6.716-15-15s6.716-15 15-15h78.998c0-8.734 0-17.578 0-26h-78.998c-8.284 0-15-6.716-15-15s6.716-15 15-15h78.998c0-11.549 0-19.312 0-20 0-24.813-20.187-45-45-45h-132c-24.813 0-45 20.187-45 45v20z"/></g></svg>