<?xml version="1.0" encoding="UTF-8"?>
<svg width="133px" height="75px" viewBox="0 0 133 75" version="1.1" xmlns="http://www.w3.org/2000/svg" xmlns:xlink="http://www.w3.org/1999/xlink">
    <!-- Generator: Sketch 58 (84663) - https://sketch.com -->
    <title>Deezer-01</title>
    <desc>Created with Sketch.</desc>
    <g id="Page-1" stroke="none" stroke-width="1" fill="none" fill-rule="evenodd">
        <g id="Deezer-01" fill-rule="nonzero">
            <rect id="XMLID_3_" fill="#ED1C24" x="0.5" y="67.2" width="24.1" height="7.3"></rect>
            <rect id="XMLID_4_" fill="#ED1C24" x="0.5" y="57.7" width="24.1" height="7.3"></rect>
            <rect id="XMLID_5_" fill="#ED1C24" x="0.5" y="48.2" width="24.1" height="7.3"></rect>
            <rect id="XMLID_6_" fill="#F6836C" x="0.5" y="38.7" width="24.1" height="7.3"></rect>
            <rect id="XMLID_7_" fill="#F6836C" x="0.5" y="29.3" width="24.1" height="7.3"></rect>
            <rect id="XMLID_8_" fill="#FFF200" x="27.5" y="67.2" width="24.1" height="7.3"></rect>
            <rect id="XMLID_9_" fill="#FFF200" x="27.5" y="57.7" width="24.1" height="7.3"></rect>
            <rect id="XMLID_10_" fill="#FFF200" x="27.5" y="48.2" width="24.1" height="7.3"></rect>
            <rect id="XMLID_11_" fill="#EC008C" x="54.5" y="67.2" width="24.1" height="7.3"></rect>
            <rect id="XMLID_12_" fill="#EC008C" x="54.5" y="57.7" width="24.1" height="7.3"></rect>
            <rect id="XMLID_13_" fill="#EC008C" x="54.5" y="48.2" width="24.1" height="7.3"></rect>
            <rect id="XMLID_14_" fill="#F680C5" x="54.5" y="38.7" width="24.1" height="7.3"></rect>
            <rect id="XMLID_15_" fill="#F680C5" x="54.5" y="29.3" width="24.1" height="7.3"></rect>
            <rect id="XMLID_16_" fill="#F680C5" x="54.5" y="19.8" width="24.1" height="7.3"></rect>
            <rect id="XMLID_17_" fill="#F680C5" x="54.5" y="10.3" width="24.1" height="7.3"></rect>
            <rect id="XMLID_18_" fill="#B2DB18" x="81.5" y="67.2" width="24.1" height="7.3"></rect>
            <rect id="XMLID_19_" fill="#B2DB18" x="81.5" y="57.7" width="24.1" height="7.3"></rect>
            <rect id="XMLID_20_" fill="#B2DB18" x="81.5" y="48.2" width="24.1" height="7.3"></rect>
            <rect id="XMLID_21_" fill="#D9ED84" x="81.5" y="38.7" width="24.1" height="7.3"></rect>
            <rect id="XMLID_22_" fill="#D9ED84" x="81.5" y="29.3" width="24.1" height="7.3"></rect>
            <rect id="XMLID_23_" fill="#59CAF5" x="108.5" y="67.2" width="24.1" height="7.3"></rect>
            <rect id="XMLID_24_" fill="#59CAF5" x="108.5" y="57.7" width="24.1" height="7.3"></rect>
            <rect id="XMLID_25_" fill="#59CAF5" x="108.5" y="48.2" width="24.1" height="7.3"></rect>
            <rect id="XMLID_26_" fill="#B2E6FA" x="108.5" y="38.7" width="24.1" height="7.3"></rect>
            <rect id="XMLID_27_" fill="#B2E6FA" x="108.5" y="29.3" width="24.1" height="7.3"></rect>
            <rect id="XMLID_28_" fill="#B2E6FA" x="108.5" y="19.8" width="24.1" height="7.3"></rect>
            <rect id="XMLID_29_" fill="#B2E6FA" x="108.5" y="10.3" width="24.1" height="7.3"></rect>
            <rect id="XMLID_30_" fill="#B2E6FA" x="108.5" y="0.8" width="24.1" height="7.3"></rect>
        </g>
    </g>
</svg>