<?xml version="1.0" encoding="utf-8"?>
<!-- Generator: Adobe Illustrator 21.0.0, SVG Export Plug-In . SVG Version: 6.00 Build 0)  -->
<svg version="1.1" id="Layer_1" xmlns="http://www.w3.org/2000/svg" xmlns:xlink="http://www.w3.org/1999/xlink" x="0px" y="0px"
	 viewBox="0 0 512 512" style="enable-background:new 0 0 512 512;" xml:space="preserve">
<g>
	<path d="M256,9.8c-65.1,0-123,30.3-160.9,77.5C77.2,80.7,65,77.6,64,77.3l-24.5-6.2l0,76.8C15.6,166,0,194.3,0,226.5
		c0,32.6,16,61.2,40.4,79.2c10.2,110,102.8,196.5,215.5,196.5c112.6,0,205.3-86.4,215.6-196.4c24.4-18,40.5-46.7,40.5-79.3
		c0-32.1-15.6-60.5-39.4-78.5l0-76.9l-24.4,6.2c-1,0.3-13.2,3.4-31.3,10.2C379,40.2,321.1,9.8,256,9.8z M256,49.2
		c50.3,0,95.5,20.3,127.7,52.3c-11,5.2-22.7,11.3-34.6,18.4c-57.3-30.8-128.7-30.8-186,0c-12-7.2-23.7-13.3-34.7-18.5
		C160.6,69.5,205.7,49.2,256,49.2z M78.8,123.4c18.8,6.9,46.2,18.6,73.3,36l10.5,6.8l10.6-6.6c50.1-31.2,115.8-31.2,165.9,0
		l10.6,6.6l10.5-6.8c27-17.5,54.2-29.1,73.1-36v162.1c0,97.7-79.6,177.2-177.3,177.2S78.7,383.3,78.7,285.6L78.8,123.4z
		 M146.5,285.7c-8.6-0.1-18,0-28.3,0.1c0.8,8.9-0.2,34.5,27.4,50.4c4.5,2.6,15.9,6.3,26.8,6.9c26.4,1.2,64,1.6,64,1.6
		C225,292.9,206.5,286.1,146.5,285.7z M365.4,285.7c-60.1,0.5-78.6,7.2-89.7,59c0,0,37.6-0.4,64-1.6c10.8-0.6,22.2-4.3,26.8-6.9
		c27.6-16.1,26.6-41.8,27.4-50.4C383.5,285.7,374,285.6,365.4,285.7z M204,364.3c14.6,15.4,32.3,27.2,52,34.5
		c19.7-7.3,37.2-19.1,52-34.5H204z M216.8,412.3c0,0-3,1.6-6.7,6.9c-2.8,4.3-3.7,10-3.7,10c30.1,18.5,69.3,18.5,99.2,0
		c0,0-0.2-4.2-3.3-9.3c-3.3-5.5-7.1-7.7-7.1-7.7C269.6,420,241.2,419.6,216.8,412.3z"/>
</g>
</svg>
