<?xml version="1.0" encoding="utf-8"?>
<!-- Generator: Adobe Illustrator 24.1.1, SVG Export Plug-In . SVG Version: 6.00 Build 0)  -->
<svg version="1.1" id="Layer_1" xmlns="http://www.w3.org/2000/svg" xmlns:xlink="http://www.w3.org/1999/xlink" x="0px" y="0px"
	 viewBox="0 0 512 512" style="enable-background:new 0 0 512 512;" xml:space="preserve">
<style type="text/css">
	.st0{fill:url(#SVGID_1_);}
	.st1{fill:url(#SVGID_2_);}
	.st2{fill:url(#SVGID_3_);}
	.st3{fill:url(#SVGID_4_);}
	.st4{fill:url(#SVGID_5_);}
	.st5{fill:url(#SVGID_6_);}
	.st6{fill:url(#SVGID_7_);}
	.st7{fill:url(#SVGID_8_);}
	.st8{fill:url(#SVGID_9_);}
	.st9{fill:url(#SVGID_10_);}
	.st10{fill:url(#SVGID_11_);}
	.st11{fill:url(#SVGID_12_);}
	.st12{fill:url(#SVGID_13_);}
	.st13{fill:url(#SVGID_14_);}
	.st14{fill:#F04923;}
</style>
<g>
	
		<linearGradient id="SVGID_1_" gradientUnits="userSpaceOnUse" x1="-0.4427" y1="491.4035" x2="1.5643" y2="491.4035" gradientTransform="matrix(6.936812e-16 110.7409 -11.3287 6.780926e-15 5778.7666 160.4813)">
		<stop  offset="0" style="stop-color:#F6871F"/>
		<stop  offset="0.2393" style="stop-color:#F57E20"/>
		<stop  offset="0.6262" style="stop-color:#F36621"/>
		<stop  offset="1" style="stop-color:#F04923"/>
	</linearGradient>
	<path class="st0" d="M220.7,275l-3-109.4c0-3.4-2.8-6-6-6c-3.4,0-6,2.6-6,6L202.9,275l2.8,52.6c0,3.4,2.8,6,6,6c3.4,0,6-2.6,6-6
		L220.7,275z"/>
	
		<linearGradient id="SVGID_2_" gradientUnits="userSpaceOnUse" x1="-0.4427" y1="491.721" x2="1.5643" y2="491.721" gradientTransform="matrix(6.719835e-16 110.741 -10.9743 6.780928e-15 5586.6313 160.4813)">
		<stop  offset="0" style="stop-color:#F6871F"/>
		<stop  offset="0.2393" style="stop-color:#F57E20"/>
		<stop  offset="0.6262" style="stop-color:#F36621"/>
		<stop  offset="1" style="stop-color:#F04923"/>
	</linearGradient>
	<path class="st1" d="M199.1,275l-3.4-113.6c0-3.2-2.6-5.6-5.6-5.6s-5.6,2.4-5.6,5.6l-3,113.4l3,53c0,3.2,2.6,5.6,5.6,5.6
		s5.6-2.4,5.6-5.6L199.1,275z"/>
	
		<linearGradient id="SVGID_3_" gradientUnits="userSpaceOnUse" x1="-0.4427" y1="493.1993" x2="1.5643" y2="493.1993" gradientTransform="matrix(6.557212e-16 110.741 -10.7087 6.780929e-15 5429.585 160.4813)">
		<stop  offset="0" style="stop-color:#F6871F"/>
		<stop  offset="0.2393" style="stop-color:#F57E20"/>
		<stop  offset="0.6262" style="stop-color:#F36621"/>
		<stop  offset="1" style="stop-color:#F04923"/>
	</linearGradient>
	<path class="st2" d="M152.5,162.2c-0.2-2.6-2.2-4.8-4.8-4.8c-2.6,0-4.6,2-4.8,4.8l-3.4,112.6l3.4,53.8c0,2.6,2.2,4.6,4.8,4.6
		c2.6,0,4.6-2,4.8-4.8l4-53.8L152.5,162.2z"/>
	
		<linearGradient id="SVGID_4_" gradientUnits="userSpaceOnUse" x1="-0.4427" y1="491.9517" x2="1.5643" y2="491.9517" gradientTransform="matrix(6.472407e-16 110.7417 -10.5702 6.780976e-15 5369.1836 160.4813)">
		<stop  offset="0" style="stop-color:#F6871F"/>
		<stop  offset="0.2393" style="stop-color:#F57E20"/>
		<stop  offset="0.6262" style="stop-color:#F36621"/>
		<stop  offset="1" style="stop-color:#F04923"/>
	</linearGradient>
	<path class="st3" d="M174.1,158.4c0-2.8-2.4-5.2-5.2-5.2c-2.8,0-5.2,2.2-5.2,5.2l-3.2,116.4l3.2,53.4c0,2.8,2.4,5.2,5.2,5.2
		c2.8,0,5-2.2,5.2-5.2l3.6-53.4L174.1,158.4z"/>
	
		<linearGradient id="SVGID_5_" gradientUnits="userSpaceOnUse" x1="-0.4427" y1="501.3807" x2="1.5643" y2="501.3807" gradientTransform="matrix(9.220229e-16 110.7414 -15.0578 6.780954e-15 7615.1523 160.4813)">
		<stop  offset="0" style="stop-color:#F6871F"/>
		<stop  offset="0.2393" style="stop-color:#F57E20"/>
		<stop  offset="0.6262" style="stop-color:#F36621"/>
		<stop  offset="1" style="stop-color:#F04923"/>
	</linearGradient>
	<path class="st4" d="M65.2,332c1.6,0,2.8-1.2,3-3l5.2-54.2l-5.2-56c-0.2-1.6-1.4-3-3-3s-2.8,1.2-3,3l-4.6,56l4.6,54.2
		C62.2,330.8,63.6,332,65.2,332z"/>
	
		<linearGradient id="SVGID_6_" gradientUnits="userSpaceOnUse" x1="-0.4427" y1="488.6385" x2="1.5643" y2="488.6385" gradientTransform="matrix(6.398461e-16 110.7417 -10.4495 6.780974e-15 5339.3281 160.4813)">
		<stop  offset="0" style="stop-color:#F6871F"/>
		<stop  offset="0.2393" style="stop-color:#F57E20"/>
		<stop  offset="0.6262" style="stop-color:#F36621"/>
		<stop  offset="1" style="stop-color:#F04923"/>
	</linearGradient>
	<path class="st5" d="M242.5,275L239.7,145c0-2.2-1.2-4.2-3-5.4c-1-0.6-2.2-1.2-3.6-1.2c-1.2,0-2.4,0.4-3.6,1c-1.8,1.2-3,3.2-3,5.4
		v1.2l-2.4,128.7l2.4,52.2v0.2c0,1.4,0.6,2.8,1.6,3.8c1.2,1.4,3,2.4,5,2.4c1.8,0,3.4-0.8,4.6-1.8c1.2-1.2,2-2.8,2-4.6l0.2-5.2
		L242.5,275z"/>
	
		<linearGradient id="SVGID_7_" gradientUnits="userSpaceOnUse" x1="-0.4427" y1="500.9734" x2="1.5643" y2="500.9734" gradientTransform="matrix(9.447903e-16 110.7415 -15.4296 6.780962e-15 7815.6841 160.4813)">
		<stop  offset="0" style="stop-color:#F6871F"/>
		<stop  offset="0.2393" style="stop-color:#F57E20"/>
		<stop  offset="0.6262" style="stop-color:#F36621"/>
		<stop  offset="1" style="stop-color:#F04923"/>
	</linearGradient>
	<path class="st6" d="M89,222.8c-0.2-2-1.6-3.4-3.4-3.4s-3.4,1.4-3.4,3.4l-4.2,52l4.2,54.6c0.2,2,1.6,3.4,3.4,3.4s3.4-1.4,3.4-3.4
		l4.8-54.6L89,222.8z"/>
	
		<linearGradient id="SVGID_8_" gradientUnits="userSpaceOnUse" x1="-0.4427" y1="497.2327" x2="1.5643" y2="497.2327" gradientTransform="matrix(7.483059e-16 110.7412 -12.2208 6.780946e-15 6183.022 160.4813)">
		<stop  offset="0" style="stop-color:#F6871F"/>
		<stop  offset="0.2393" style="stop-color:#F57E20"/>
		<stop  offset="0.6262" style="stop-color:#F36621"/>
		<stop  offset="1" style="stop-color:#F04923"/>
	</linearGradient>
	<path class="st7" d="M106.2,186.4c-2,0-3.8,1.6-3.8,3.8l-4,84.6l4,54.6c0.2,2.2,1.8,3.8,3.8,3.8s3.8-1.6,3.8-3.8l4.6-54.6
		l-4.6-84.6C110,188.2,108.2,186.4,106.2,186.4z"/>
	
		<linearGradient id="SVGID_9_" gradientUnits="userSpaceOnUse" x1="-0.4427" y1="494.9059" x2="1.5643" y2="494.9059" gradientTransform="matrix(6.829174e-16 110.7414 -11.1529 6.780954e-15 5646.3799 160.4813)">
		<stop  offset="0" style="stop-color:#F6871F"/>
		<stop  offset="0.2393" style="stop-color:#F57E20"/>
		<stop  offset="0.6262" style="stop-color:#F36621"/>
		<stop  offset="1" style="stop-color:#F04923"/>
	</linearGradient>
	<path class="st8" d="M130.9,329.4l4.2-54.4l-4.2-104c-0.2-2.4-2-4.2-4.4-4.2s-4.2,1.8-4.4,4.2l-3.8,104l3.8,54.4
		c0,2.4,2,4.2,4.4,4.2C128.9,333.8,130.7,331.8,130.9,329.4z"/>
	
		<linearGradient id="SVGID_10_" gradientUnits="userSpaceOnUse" x1="-0.4427" y1="487.9131" x2="1.5643" y2="487.9131" gradientTransform="matrix(6.479860e-16 110.7412 -10.5824 6.780943e-15 5418.0986 160.4814)">
		<stop  offset="0" style="stop-color:#F6871F"/>
		<stop  offset="0.2393" style="stop-color:#F57E20"/>
		<stop  offset="0.6262" style="stop-color:#F36621"/>
		<stop  offset="1" style="stop-color:#F04923"/>
	</linearGradient>
	<path class="st9" d="M258.3,127.3c-1-0.6-2.2-1-3.6-1c-1.6,0-3.2,0.6-4.4,1.6c-1.6,1.2-2.6,3.2-2.6,5.4v0.8l-2.8,141.1l1.4,26
		l1.4,25.4c0,3.8,3.2,6.8,7,6.8s6.8-3.2,7-7l3-51.4l-3-141.7C261.5,130.6,260.3,128.4,258.3,127.3z"/>
	
		<linearGradient id="SVGID_11_" gradientUnits="userSpaceOnUse" x1="-0.4427" y1="506.1832" x2="1.5643" y2="506.1832" gradientTransform="matrix(1.369663e-15 110.7415 -22.3683 6.780958e-15 11328.5566 160.4813)">
		<stop  offset="0" style="stop-color:#F6871F"/>
		<stop  offset="0.2393" style="stop-color:#F57E20"/>
		<stop  offset="0.6262" style="stop-color:#F36621"/>
		<stop  offset="1" style="stop-color:#F04923"/>
	</linearGradient>
	<path class="st10" d="M5.8,304.8c1,0,1.8-0.8,2-2l4.4-28l-4.4-28.4c-0.2-1.2-1-2-2-2s-2,0.8-2,2L0,274.8l3.8,28
		C3.8,304,4.8,304.8,5.8,304.8z"/>
	
		<linearGradient id="SVGID_12_" gradientUnits="userSpaceOnUse" x1="-0.4427" y1="504.1161" x2="1.5643" y2="504.1161" gradientTransform="matrix(1.084952e-15 110.7413 -17.7186 6.780949e-15 8957.4268 160.4813)">
		<stop  offset="0" style="stop-color:#F6871F"/>
		<stop  offset="0.2393" style="stop-color:#F57E20"/>
		<stop  offset="0.6262" style="stop-color:#F36621"/>
		<stop  offset="1" style="stop-color:#F04923"/>
	</linearGradient>
	<path class="st11" d="M24.8,321.8c1,0,2-0.8,2.2-2l5.8-45l-5.8-46c-0.2-1.2-1-2-2.2-2c-1,0-2,0.8-2.2,2l-5,46l5,45
		C22.8,321,23.6,321.8,24.8,321.8z"/>
	
		<linearGradient id="SVGID_13_" gradientUnits="userSpaceOnUse" x1="-0.4427" y1="502.1354" x2="1.5643" y2="502.1354" gradientTransform="matrix(9.290618e-16 110.7412 -15.1727 6.780945e-15 7663.8486 160.4813)">
		<stop  offset="0" style="stop-color:#F6871F"/>
		<stop  offset="0.2393" style="stop-color:#F57E20"/>
		<stop  offset="0.6262" style="stop-color:#F36621"/>
		<stop  offset="1" style="stop-color:#F04923"/>
	</linearGradient>
	<path class="st12" d="M44.8,330c1.4,0,2.4-1,2.6-2.6l5.4-52.6l-5.4-54.6c-0.2-1.4-1.2-2.6-2.6-2.6c-1.4,0-2.4,1-2.6,2.6l-4.8,54.6
		l4.8,52.6C42.4,328.8,43.4,330,44.8,330z"/>
	
		<linearGradient id="SVGID_14_" gradientUnits="userSpaceOnUse" x1="-0.4434" y1="509.3493" x2="1.5636" y2="509.3493" gradientTransform="matrix(7.453477e-15 110.5681 -121.7245 6.770343e-15 62390.1445 160.4813)">
		<stop  offset="0" style="stop-color:#F7941E"/>
		<stop  offset="0" style="stop-color:#F68B1F"/>
		<stop  offset="0" style="stop-color:#F6871F"/>
		<stop  offset="0.2402" style="stop-color:#F57E20"/>
		<stop  offset="0.6306" style="stop-color:#F36621"/>
		<stop  offset="1" style="stop-color:#F04923"/>
	</linearGradient>
	<path class="st13" d="M448.8,207.8c-8.6,0-16.8,1.8-24.4,4.8c-5-56.6-52.6-101.2-110.6-101.2c-14.2,0-28,2.8-40.2,7.6
		c-4.8,1.8-6,3.8-6,7.4v199.7c0,3.8,3,6.8,6.8,7.2H449c34.8,0,63-27.8,63-62.6C511.8,236,483.6,207.8,448.8,207.8z"/>
	<path class="st14" d="M50.2,371.4c-7.4-1.8-9.4-2.6-9.4-5.6c0-2,1.6-4.2,6.6-4.2c4.2,0,7.6,1.8,10.6,4.8l6.8-6.6
		c-4.4-4.6-9.8-7.4-17-7.4c-9.2,0-16.6,5.2-16.6,13.6c0,9.2,6,12,14.6,13.8c8.8,2,10.4,3.4,10.4,6.4c0,3.6-2.6,5-8.2,5
		c-4.4,0-8.6-1.6-12-5.4l-6.8,6c3.6,5.2,10.4,8.4,18,8.4c12.8,0,18.2-6,18.2-14.8C65.8,375.6,57.6,373,50.2,371.4z M93.2,352.6
		c-12.8,0-20.2,9.8-20.2,24c0,14.2,7.6,24,20.2,24c12.6,0,20.2-9.8,20.2-24C113.4,362.4,105.8,352.6,93.2,352.6z M93.2,391.1
		c-7.6,0-10.6-6.4-10.6-14.8c0-8.4,3.2-14.8,10.6-14.8c7.6,0,10.6,6.4,10.6,14.8C103.8,384.7,100.6,391.1,93.2,391.1z M150.9,379.4
		c0,7.4-3.6,12-9.6,12c-6,0-9.6-4.8-9.6-12.2v-26h-9.4v26.2c0,13.6,7.6,21.2,18.8,21.2c11.8,0,18.8-7.8,18.8-21.2v-26h-9.4v26H150.9
		z M200.3,373c0,2.6,0.2,8.4,0.2,10.2c-0.6-1.2-2.2-3.6-3.2-5.2l-16.6-24.6h-9v46.6h9.2v-20.6c0-2.6-0.2-8.4-0.2-10.2
		c0.6,1.2,2.2,3.6,3.2,5.2l17,25.4h8.4v-46.6h-9.2V373H200.3z M236.1,353.2h-14.6v46.6h13.8c12,0,23.8-7,23.8-23.2
		C259.1,359.4,249.3,353.2,236.1,353.2z M235.3,390.7h-4.6v-28.4h5c9.8,0,14,4.8,14,14.2C249.7,384.9,245.1,390.7,235.3,390.7z
		 M287.9,361.8c4.2,0,6.8,1.8,8.6,5l8.6-4c-3-6-8.2-10.4-17-10.4c-12.2,0-20.6,9.8-20.6,24c0,14.6,8.2,24,20.4,24
		c8.4,0,14-4,17.2-10.6l-7.8-4.6c-2.4,4.2-5,6-9.2,6c-7,0-11-6.4-11-14.8C277.1,367.8,281.1,361.8,287.9,361.8z M322.5,353.2h-9.4
		v46.6h28v-9.2h-18.6V353.2z M365.7,352.6c-12.8,0-20.2,9.8-20.2,24c0,14.2,7.6,24,20.2,24c12.8,0,20.2-9.8,20.2-24
		C385.8,362.4,378.5,352.6,365.7,352.6z M365.7,391.1c-7.6,0-10.6-6.4-10.6-14.8c0-8.4,3.2-14.8,10.6-14.8c7.6,0,10.6,6.4,10.6,14.8
		C376.3,384.7,373.3,391.1,365.7,391.1z M423.4,379.4c0,7.4-3.6,12-9.6,12c-6,0-9.6-4.8-9.6-12.2v-26h-9.4v26.2
		c0,13.6,7.6,21.2,18.8,21.2c11.8,0,18.8-7.8,18.8-21.2v-26H423v26H423.4z M459,353.2h-14.6v46.6h13.8c12,0,23.8-7,23.8-23.2
		C482,359.4,472.2,353.2,459,353.2z M458.2,390.7h-4.4v-28.4h5c9.8,0,13.8,4.8,13.8,14.2C472.6,384.9,468,390.7,458.2,390.7z"/>
</g>
</svg>
